<svg width="32" height="32" viewBox="0 0 32 32" fill="none" xmlns="http://www.w3.org/2000/svg">
<path d="M28 0C30.2091 0 32 1.79086 32 4V28C32 29.3083 31.3715 30.4694 30.4004 31.1992V31.2002H30.3994C29.7309 31.7022 28.9003 32 28 32H4C3.09938 32 2.26819 31.7025 1.59961 31.2002V31.1992C0.628487 30.4694 0 29.3083 0 28V4C0 1.79086 1.79086 0 4 0H28ZM4 2C2.89543 2 2 2.89543 2 4V20.1201L11.4551 17.9141C12.3489 17.7055 13.2638 17.5996 14.1816 17.5996H17.8184C18.7362 17.5996 19.6511 17.7055 20.5449 17.9141L30 20.1201V4C30 2.89543 29.1046 2 28 2H4ZM8.72754 5.81836C10.3341 5.81841 11.6367 7.12092 11.6367 8.72754C11.6366 10.334 10.3341 11.6367 8.72754 11.6367C7.12099 11.6367 5.81851 10.3341 5.81836 8.72754C5.81836 7.12089 7.12089 5.81836 8.72754 5.81836Z" fill="#CDCDCD"/>
</svg>
