<svg width="17" height="17" viewBox="0 0 17 17" fill="none" xmlns="http://www.w3.org/2000/svg">
<path d="M8.49992 8.49992C7.72075 8.49992 7.05374 8.22249 6.49888 7.66763C5.94402 7.11277 5.66659 6.44575 5.66659 5.66659C5.66659 4.88742 5.94402 4.2204 6.49888 3.66554C7.05374 3.11068 7.72075 2.83325 8.49992 2.83325C9.27909 2.83325 9.9461 3.11068 10.501 3.66554C11.0558 4.2204 11.3333 4.88742 11.3333 5.66659C11.3333 6.44575 11.0558 7.11277 10.501 7.66763C9.9461 8.22249 9.27909 8.49992 8.49992 8.49992ZM2.83325 14.1666V12.1833C2.83325 11.7819 2.93655 11.4129 3.14315 11.0765C3.34975 10.74 3.62422 10.4833 3.96659 10.3062C4.69853 9.9402 5.44228 9.66572 6.19784 9.48273C6.95339 9.29975 7.72075 9.20825 8.49992 9.20825C9.27909 9.20825 10.0464 9.29975 10.802 9.48273C11.5576 9.66572 12.3013 9.9402 13.0333 10.3062C13.3756 10.4833 13.6501 10.74 13.8567 11.0765C14.0633 11.4129 14.1666 11.7819 14.1666 12.1833V14.1666H2.83325ZM4.24992 12.7499H12.7499V12.1833C12.7499 12.0534 12.7175 11.9353 12.6525 11.8291C12.5876 11.7228 12.502 11.6402 12.3958 11.5812C11.7583 11.2624 11.1149 11.0234 10.4655 10.864C9.81624 10.7046 9.16103 10.6249 8.49992 10.6249C7.83881 10.6249 7.1836 10.7046 6.53429 10.864C5.88499 11.0234 5.24159 11.2624 4.60409 11.5812C4.49784 11.6402 4.41225 11.7228 4.34731 11.8291C4.28238 11.9353 4.24992 12.0534 4.24992 12.1833V12.7499ZM8.49992 7.08325C8.8895 7.08325 9.22301 6.94454 9.50044 6.66711C9.77787 6.38968 9.91659 6.05617 9.91659 5.66659C9.91659 5.277 9.77787 4.9435 9.50044 4.66606C9.22301 4.38863 8.8895 4.24992 8.49992 4.24992C8.11034 4.24992 7.77683 4.38863 7.4994 4.66606C7.22197 4.9435 7.08325 5.277 7.08325 5.66659C7.08325 6.05617 7.22197 6.38968 7.4994 6.66711C7.77683 6.94454 8.11034 7.08325 8.49992 7.08325Z" fill="#747474"/>
</svg>
