<svg width="15" height="14" viewBox="0 0 15 14" fill="none" xmlns="http://www.w3.org/2000/svg">
<path fill-rule="evenodd" clip-rule="evenodd" d="M8.88633 8.41379C7.28484 9.84571 4.68831 9.84571 3.08681 8.41379C1.48532 6.98187 1.48532 4.66026 3.08681 3.22834C4.68831 1.79642 7.28484 1.79642 8.88633 3.22834C10.4878 4.66026 10.4878 6.98187 8.88633 8.41379ZM9.37886 9.79675C7.18651 11.2961 4.03749 11.1494 2.03236 9.3566C-0.151496 7.40398 -0.151496 4.23815 2.03236 2.28553C4.21621 0.332912 7.75693 0.332912 9.94079 2.28553C11.9458 4.07828 12.11 6.8937 10.4333 8.85391L14.4224 12.4206L13.3679 13.3634L9.37886 9.79675Z" fill="#999999"/>
</svg>
